<?xml version="1.0" encoding="windows-1252"?>
<!-- Free Icon Download www.onlinewebfonts.com -->
<!DOCTYPE svg PUBLIC "-//W3C//DTD SVG 1.1//EN" "http://www.w3.org/Graphics/SVG/1.1/DTD/svg11.dtd">
<svg version="1.1" id="Capa_1" xmlns="http://www.w3.org/2000/svg" xmlns:xlink="http://www.w3.org/1999/xlink" x="0px" y="0px" width="575.026px" height="575.025px" viewBox="0 0 575.026 575.025" style="enable-background:new 0 0 575.026 575.025;" xml:space="preserve">
<g>
	<g>
		<path d="M291.072,395.866c4.657-7.449,2.4-17.28-5.029-21.946l-83.509-52.374c-7.43-4.666-17.27-2.409-21.937,5.021L72.904,498.29    c-4.667,7.43-2.41,17.26,5.021,21.927l83.509,52.374c7.43,4.666,17.27,2.429,21.937-5.021L291.072,395.866z M178.101,564.252    c-2.84,4.542-8.836,5.9-13.359,3.06l-83.509-52.373c-4.523-2.841-5.9-8.836-3.06-13.35l107.693-171.714    c2.84-4.523,8.836-5.9,13.359-3.06l83.509,52.373c4.533,2.841,5.899,8.836,3.06,13.35L178.101,564.252z"/>
		<path d="M187.109,342.411c-0.727-0.449-1.683-0.238-2.142,0.488L90.422,493.643c-0.449,0.727-0.239,1.702,0.488,2.151    l86.856,54.478c0.727,0.469,1.693,0.239,2.142-0.487l94.554-150.743c0.449-0.728,0.229-1.702-0.498-2.152L187.109,342.411z     M170.011,541.732l-68.028-42.658c-4.475-2.802-5.823-8.712-3.021-13.178l82.734-131.924c2.802-4.476,8.711-5.823,13.177-3.021    l68.028,42.677c4.475,2.812,5.823,8.712,3.021,13.187L183.188,538.72C180.386,543.186,174.486,544.534,170.011,541.732z"/>
		<path d="M242.227,367.475c0.727,0.469,1.693,0.239,2.152-0.487s0.229-1.684-0.498-2.151l-14.822-9.285    c-0.727-0.469-1.683-0.239-2.142,0.487s-0.239,1.683,0.488,2.151L242.227,367.475z"/>
		<path d="M140.042,530.803l-15.186-9.524c-3.117-1.941-7.249-1.004-9.199,2.113l-0.574,0.918c-1.96,3.117-1.014,7.248,2.104,9.189    l15.185,9.524c3.118,1.96,7.249,1.004,9.199-2.113l0.574-0.899C144.106,536.894,143.16,532.763,140.042,530.803z M139.526,538.347    l-0.574,0.919c-1.042,1.663-3.251,2.17-4.915,1.118l-15.186-9.524c-1.664-1.022-2.17-3.251-1.128-4.915l0.574-0.918    c1.033-1.645,3.251-2.151,4.915-1.1l15.185,9.505C140.052,534.484,140.559,536.702,139.526,538.347z"/>
		<path d="M272.139,353.169c0.669,0.173,1.387,0.058,1.979-0.315c0.583-0.373,1.004-0.956,1.167-1.625    c2.897-12.364-2.391-25.197-13.148-31.939c-9.83-6.168-22.443-6.015-32.14,0.354c-0.918,0.593-1.807,1.271-2.677,1.998    c-1.109,0.938-1.253,2.592-0.335,3.701c0.182,0.2,0.383,0.373,0.622,0.525c0.966,0.612,2.2,0.526,3.079-0.21    c0.688-0.574,1.435-1.119,2.19-1.626c7.985-5.269,18.37-5.374,26.469-0.296c8.855,5.565,13.206,16.122,10.834,26.297    C269.863,351.4,270.752,352.854,272.139,353.169z"/>
		<path d="M287.63,353.801c1.424,0.22,2.773-0.766,3.011-2.171c2.879-17.854-5.153-35.582-20.463-45.183    c-13.588-8.521-30.83-9.113-44.992-1.568c-1.578,0.86-3.146,1.807-4.619,2.84c-0.583,0.411-0.966,1.014-1.071,1.702    c-0.125,0.688,0.029,1.377,0.43,1.96c0.201,0.297,0.459,0.545,0.755,0.728c0.899,0.563,2.027,0.525,2.907-0.077    c1.31-0.937,2.687-1.778,4.083-2.505c12.508-6.685,27.731-6.168,39.742,1.367c13.512,8.481,20.607,24.126,18.064,39.876    C285.249,352.165,286.234,353.562,287.63,353.801z"/>
		<path d="M302.011,356.124c1.425,0.239,2.783-0.746,3.013-2.171c3.815-23.629-6.818-47.124-27.1-59.822    c-19.488-12.231-44.552-12.05-63.868,0.43c-0.622,0.411-1.243,0.822-1.846,1.253c-0.583,0.392-0.956,0.994-1.081,1.683    s0.038,1.387,0.44,1.961c0.201,0.296,0.459,0.545,0.746,0.727c0.899,0.564,2.027,0.525,2.907-0.076    c0.555-0.412,1.119-0.784,1.692-1.139c17.604-11.389,40.469-11.542,58.226-0.411c18.484,11.6,28.181,33.02,24.699,54.555    C299.621,354.498,300.606,355.895,302.011,356.124z"/>
		<path d="M497.392,56.808L415.049,2.627c-7.324-4.839-17.212-2.802-22.041,4.542L281.577,176.474    c-4.829,7.324-2.792,17.222,4.542,22.041l82.342,54.2c7.324,4.819,17.212,2.802,22.041-4.542L501.934,78.85    C506.764,71.524,504.717,61.646,497.392,56.808z M496.733,75.427L385.301,244.749c-2.937,4.466-8.961,5.699-13.417,2.764    l-82.343-54.2c-4.465-2.936-5.698-8.97-2.763-13.426L398.201,10.583c2.936-4.446,8.96-5.719,13.426-2.764l82.333,54.2    C498.435,64.945,499.668,70.979,496.733,75.427z"/>
		<path d="M398.229,24.573c-0.717-0.469-1.683-0.259-2.161,0.468l-97.824,148.631c-0.469,0.707-0.268,1.683,0.44,2.151    l85.651,56.371c0.717,0.468,1.673,0.277,2.151-0.431l97.824-148.649c0.469-0.707,0.277-1.683-0.44-2.151L398.229,24.573z     M376.761,223.473l-67.071-44.131c-4.408-2.907-5.632-8.836-2.734-13.244l85.612-130.06c2.907-4.408,8.836-5.632,13.244-2.734    l67.071,44.131c4.408,2.907,5.633,8.836,2.735,13.244l-85.613,130.06C387.108,225.146,381.169,226.37,376.761,223.473z"/>
		<path d="M329.781,205.906c-0.717-0.468-1.683-0.258-2.161,0.469c-0.469,0.708-0.268,1.664,0.449,2.151l14.621,9.62    c0.718,0.469,1.674,0.258,2.152-0.449c0.478-0.708,0.276-1.684-0.44-2.151L329.781,205.906z"/>
		<path d="M435.523,44.854l14.966,9.859c3.079,2.018,7.219,1.176,9.237-1.903l0.593-0.898c2.027-3.06,1.166-7.229-1.903-9.247    l-14.975-9.858c-3.069-1.999-7.22-1.139-9.237,1.922l-0.584,0.898C431.593,38.688,432.454,42.837,435.523,44.854z M436.211,37.349    l0.593-0.918c1.081-1.645,3.299-2.095,4.944-1.004l14.975,9.858c1.635,1.062,2.094,3.29,1.014,4.935l-0.593,0.898    c-1.071,1.626-3.3,2.095-4.935,1.014l-14.975-9.84C435.59,41.192,435.14,38.974,436.211,37.349z"/>
		<path d="M299.563,219.553c-0.669-0.173-1.386-0.077-1.988,0.276c-0.593,0.354-1.023,0.938-1.195,1.607    c-3.165,12.269,1.846,25.235,12.44,32.196c9.696,6.388,22.31,6.521,32.14,0.373c0.938-0.593,1.846-1.253,2.726-1.941    c1.128-0.918,1.31-2.572,0.411-3.7c-0.191-0.201-0.373-0.373-0.612-0.545c-0.956-0.641-2.189-0.564-3.079,0.152    c-0.708,0.564-1.463,1.081-2.229,1.568c-8.099,5.097-18.483,4.973-26.469-0.277c-8.73-5.747-12.852-16.399-10.251-26.517    C301.801,221.389,300.94,219.916,299.563,219.553z"/>
		<path d="M284.082,218.605c-1.425-0.277-2.792,0.67-3.05,2.095c-3.271,17.776,4.37,35.668,19.459,45.604    c13.407,8.816,30.619,9.782,44.944,2.543c1.606-0.803,3.184-1.721,4.686-2.725c0.593-0.393,0.984-0.995,1.109-1.664    c0.144-0.688,0-1.396-0.393-1.979c-0.2-0.277-0.439-0.545-0.736-0.727c-0.88-0.584-2.018-0.584-2.907,0.019    c-1.329,0.88-2.725,1.702-4.141,2.391c-12.642,6.407-27.864,5.565-39.693-2.237c-13.33-8.76-20.071-24.576-17.184-40.249    C286.435,220.289,285.479,218.863,284.082,218.605z"/>
		<path d="M269.767,215.947c-1.425-0.258-2.802,0.688-3.06,2.094c-4.341,23.553,5.785,47.268,25.78,60.416    c19.211,12.661,44.274,13.034,63.858,0.976c0.632-0.392,1.263-0.784,1.875-1.215c0.593-0.372,0.984-0.975,1.118-1.663    c0.134-0.67-0.01-1.387-0.401-1.961c-0.201-0.296-0.44-0.545-0.736-0.746c-0.88-0.583-2.018-0.563-2.897,0.02    c-0.564,0.393-1.128,0.746-1.722,1.1c-17.853,10.997-40.707,10.644-58.216-0.88c-18.226-11.991-27.454-33.621-23.504-55.08    C272.12,217.63,271.163,216.215,269.767,215.947z"/>
	</g>
</g>
<g>
</g>
<g>
</g>
<g>
</g>
<g>
</g>
<g>
</g>
<g>
</g>
<g>
</g>
<g>
</g>
<g>
</g>
<g>
</g>
<g>
</g>
<g>
</g>
<g>
</g>
<g>
</g>
<g>
</g>
</svg>